<svg width="17" height="17" viewBox="0 0 17 17" fill="none" xmlns="http://www.w3.org/2000/svg">
<path d="M8.5 17C6.30785 17 5.1 15.8525 5.1 13.7701C5.1 11.0136 7.85145 8.7798 7.96875 8.68631C8.11951 8.56561 8.30688 8.49984 8.5 8.49984C8.69312 8.49984 8.88049 8.56561 9.03125 8.68631C9.14855 8.7798 11.9 11.0136 11.9 13.7701C11.9 15.8525 10.6921 17 8.5 17ZM8.5 10.507C7.5568 11.3529 6.95272 12.5124 6.8 13.7701C6.8 14.7152 7.08475 15.3 8.5 15.3C9.91525 15.3 10.2 14.7152 10.2 13.7701C10.0473 12.5124 9.4432 11.3529 8.5 10.507ZM13.0687 0.186466C13.2195 0.0657649 13.4069 0 13.6 0C13.7931 0 13.9805 0.0657649 14.1312 0.186466C14.2485 0.279964 17 2.51372 17 5.27022C17 7.35268 15.7921 8.50016 13.6 8.50016C11.4078 8.50016 10.2 7.35268 10.2 5.27022C10.2 2.51372 12.9514 0.279964 13.0687 0.186466ZM13.6 6.80019C15.0152 6.80019 15.3 6.2154 15.3 5.27022C15.1473 4.01252 14.5432 2.85302 13.6 2.00713C12.6568 2.85302 12.0527 4.01252 11.9 5.27022C11.9 6.2154 12.1847 6.80019 13.6 6.80019ZM2.86875 0.186466C3.01951 0.0657649 3.20687 0 3.4 0C3.59312 0 3.78049 0.0657649 3.93125 0.186466C4.04855 0.279964 6.8 2.51372 6.8 5.27022C6.8 7.35268 5.59215 8.50016 3.4 8.50016C1.20785 8.50016 -4.76837e-07 7.35268 -4.76837e-07 5.27022C-4.76837e-07 2.51372 2.75145 0.279964 2.86875 0.186466ZM3.4 6.80019C4.81525 6.80019 5.1 6.2154 5.1 5.27022C4.94728 4.01252 4.3432 2.85302 3.4 2.00713C2.4568 2.85302 1.85272 4.01252 1.7 5.27022C1.7 6.2154 1.98475 6.80019 3.4 6.80019Z" fill="white"/>
</svg>
