<svg width="172" height="20" viewBox="0 0 172 20" fill="none" xmlns="http://www.w3.org/2000/svg">
<path d="M6.9586 4.7081H8.71896L10.6657 9.8235L12.6332 4.7081H14.3935L11.8462 11.1075L14.3728 17.1756L19.3432 4.62526H21.3728L15.2219 19.3294H13.6065L10.6864 12.3916L7.74558 19.3294H6.13019L0 4.62526H2.00888L7.00002 17.1756L9.50594 11.1075L6.9586 4.7081Z" fill="white"/>
<path d="M26.3737 19.5365C25.5591 19.5365 24.8135 19.3916 24.137 19.1016C23.4743 18.7979 22.8944 18.3906 22.3973 17.8797C21.9141 17.3551 21.5344 16.7545 21.2583 16.078C20.996 15.4014 20.8648 14.6835 20.8648 13.9241C20.8648 12.9024 21.0995 11.9705 21.5689 11.1282C22.0384 10.286 22.6873 9.6095 23.5157 9.09865C24.3579 8.5878 25.3175 8.33237 26.3944 8.33237C27.4851 8.33237 28.4309 8.5947 29.2317 9.11936C30.0463 9.63021 30.6745 10.3067 31.1163 11.1489C31.5719 11.9774 31.7997 12.8748 31.7997 13.8413C31.7997 13.9793 31.7928 14.1174 31.779 14.2555C31.779 14.3797 31.7721 14.4764 31.7583 14.5454H22.7908C22.8461 15.2496 23.0394 15.8778 23.3707 16.43C23.7159 16.9685 24.1577 17.3965 24.6962 17.7141C25.2346 18.0178 25.8145 18.1697 26.4358 18.1697C27.0985 18.1697 27.7198 18.004 28.2997 17.6726C28.8934 17.3413 29.3007 16.9064 29.5216 16.3679L31.0956 16.8028C30.8609 17.3275 30.5088 17.7969 30.0394 18.2111C29.5838 18.6253 29.0384 18.9498 28.4033 19.1845C27.782 19.4192 27.1054 19.5365 26.3737 19.5365ZM22.7287 13.2821H30.1015C30.0463 12.5779 29.8461 11.9566 29.5009 11.4182C29.1557 10.8797 28.7139 10.4586 28.1755 10.1549C27.637 9.85111 27.0433 9.69924 26.3944 9.69924C25.7593 9.69924 25.1725 9.85111 24.634 10.1549C24.0956 10.4586 23.6538 10.8797 23.3086 11.4182C22.9772 11.9566 22.7839 12.5779 22.7287 13.2821Z" fill="white"/>
<path d="M32.9765 16.2022C32.9765 15.5119 33.1698 14.9182 33.5564 14.4211C33.9568 13.9103 34.5021 13.5168 35.1925 13.2407C35.8828 12.9645 36.6836 12.8265 37.5948 12.8265C38.0781 12.8265 38.5889 12.8679 39.1274 12.9507C39.6659 13.0198 40.1422 13.1302 40.5564 13.2821V12.4951C40.5564 11.6667 40.3079 11.0178 39.8108 10.5484C39.3138 10.0651 38.6096 9.8235 37.6984 9.8235C37.1047 9.8235 36.5317 9.93396 35.9795 10.1549C35.441 10.362 34.868 10.6657 34.2605 11.0661L33.5978 9.78208C34.3019 9.29884 35.0061 8.93987 35.7102 8.70516C36.4144 8.45663 37.1461 8.33237 37.9055 8.33237C39.2862 8.33237 40.3769 8.71896 41.1777 9.49214C41.9785 10.2515 42.3789 11.3146 42.3789 12.6815V17.2584C42.3789 17.4793 42.4203 17.645 42.5031 17.7555C42.5998 17.8521 42.7517 17.9074 42.9588 17.9212V19.3294C42.7793 19.3571 42.6205 19.3778 42.4824 19.3916C42.3582 19.4054 42.2546 19.4123 42.1718 19.4123C41.7438 19.4123 41.4193 19.2949 41.1984 19.0602C40.9913 18.8255 40.874 18.577 40.8463 18.3146L40.8049 17.6312C40.3355 18.2387 39.7211 18.7081 38.9617 19.0395C38.2023 19.3709 37.4499 19.5365 36.7043 19.5365C35.9864 19.5365 35.3444 19.3916 34.7783 19.1016C34.2122 18.7979 33.7704 18.3975 33.4528 17.9004C33.1353 17.3896 32.9765 16.8235 32.9765 16.2022ZM40.0179 16.9685C40.1836 16.7752 40.3148 16.5819 40.4114 16.3886C40.5081 16.1815 40.5564 16.0089 40.5564 15.8709V14.5247C40.1284 14.359 39.6797 14.2348 39.2102 14.1519C38.7408 14.0553 38.2783 14.0069 37.8227 14.0069C36.8976 14.0069 36.1451 14.1933 35.5653 14.5661C34.9992 14.9251 34.7161 15.4221 34.7161 16.0572C34.7161 16.4024 34.8059 16.7407 34.9854 17.072C35.1787 17.3896 35.4548 17.6519 35.8138 17.859C36.1866 18.0661 36.6422 18.1697 37.1806 18.1697C37.7467 18.1697 38.2852 18.0592 38.796 17.8383C39.3069 17.6036 39.7142 17.3137 40.0179 16.9685Z" fill="white"/>
<path d="M50.8039 18.791C50.652 18.86 50.4449 18.9498 50.1826 19.0602C49.9202 19.1707 49.6165 19.2673 49.2713 19.3502C48.9261 19.433 48.5603 19.4744 48.1737 19.4744C47.7319 19.4744 47.3246 19.3985 46.9518 19.2466C46.579 19.0809 46.2821 18.8324 46.0612 18.501C45.8403 18.1559 45.7299 17.7279 45.7299 17.217V9.94776H44.2595V8.51876H45.7299V4.9152H47.5524V8.51876H49.9755V9.94776H47.5524V16.6578C47.58 17.0444 47.7111 17.3344 47.9459 17.5277C48.1806 17.7072 48.4567 17.7969 48.7743 17.7969C49.1332 17.7969 49.4646 17.7348 49.7684 17.6105C50.0721 17.4862 50.2723 17.3965 50.3689 17.3413L50.8039 18.791Z" fill="white"/>
<path d="M61.8747 19.3294H60.0522V13.2821C60.0522 12.1776 59.852 11.3491 59.4516 10.7969C59.065 10.2446 58.5059 9.96847 57.7741 9.96847C57.3047 9.96847 56.8283 10.0927 56.3451 10.3413C55.8757 10.5898 55.4615 10.928 55.1025 11.3561C54.7435 11.7703 54.4812 12.2535 54.3155 12.8058V19.3294H52.493V4.21106H54.3155V10.8383C54.7435 10.0651 55.3234 9.45762 56.0552 9.01581C56.8007 8.56018 57.6015 8.33237 58.4575 8.33237C59.1065 8.33237 59.6449 8.44973 60.0729 8.68445C60.5147 8.90535 60.8668 9.22291 61.1291 9.63711C61.3915 10.0513 61.5779 10.5345 61.6883 11.0868C61.8126 11.6253 61.8747 12.219 61.8747 12.8679V19.3294Z" fill="white"/>
<path d="M69.4928 19.5365C68.6782 19.5365 67.9326 19.3916 67.2561 19.1016C66.5934 18.7979 66.0135 18.3906 65.5165 17.8797C65.0332 17.3551 64.6535 16.7545 64.3774 16.078C64.1151 15.4014 63.9839 14.6835 63.9839 13.9241C63.9839 12.9024 64.2186 11.9705 64.6881 11.1282C65.1575 10.286 65.8064 9.6095 66.6348 9.09865C67.477 8.5878 68.4366 8.33237 69.5135 8.33237C70.6042 8.33237 71.55 8.5947 72.3508 9.11936C73.1654 9.63021 73.7936 10.3067 74.2354 11.1489C74.691 11.9774 74.9189 12.8748 74.9189 13.8413C74.9189 13.9793 74.9119 14.1174 74.8981 14.2555C74.8981 14.3797 74.8912 14.4764 74.8774 14.5454H65.9099C65.9652 15.2496 66.1585 15.8778 66.4898 16.43C66.835 16.9685 67.2768 17.3965 67.8153 17.7141C68.3537 18.0178 68.9336 18.1697 69.5549 18.1697C70.2177 18.1697 70.839 18.004 71.4188 17.6726C72.0125 17.3413 72.4198 16.9064 72.6407 16.3679L74.2147 16.8028C73.98 17.3275 73.6279 17.7969 73.1585 18.2111C72.7029 18.6253 72.1575 18.9498 71.5224 19.1845C70.9011 19.4192 70.2246 19.5365 69.4928 19.5365ZM65.8478 13.2821H73.2206C73.1654 12.5779 72.9652 11.9566 72.62 11.4182C72.2749 10.8797 71.833 10.4586 71.2946 10.1549C70.7561 9.85111 70.1624 9.69924 69.5135 9.69924C68.8784 9.69924 68.2916 9.85111 67.7531 10.1549C67.2147 10.4586 66.7729 10.8797 66.4277 11.4182C66.0963 11.9566 65.903 12.5779 65.8478 13.2821Z" fill="white"/>
<path d="M82.6607 10.1134C81.7495 10.1272 80.9418 10.362 80.2376 10.8176C79.5473 11.2594 79.0572 11.8738 78.7672 12.6608V19.3294H76.9447V8.51876H78.6429V11.0247C79.0157 10.2791 79.5059 9.67853 80.1134 9.22291C80.7347 8.75348 81.3836 8.49115 82.0601 8.43592C82.1982 8.43592 82.3155 8.43592 82.4122 8.43592C82.5088 8.43592 82.5917 8.44283 82.6607 8.45663V10.1134Z" fill="white"/>
<path d="M116.55 19.433C115.583 19.433 114.679 19.2259 113.837 18.8117C113.008 18.3837 112.283 17.8176 111.662 17.1135C111.041 16.3955 110.558 15.5947 110.212 14.7111C109.867 13.8137 109.695 12.8886 109.695 11.9359C109.695 10.9418 109.867 10.003 110.212 9.11936C110.558 8.22192 111.034 7.42803 111.641 6.73769C112.263 6.04736 112.987 5.50889 113.816 5.1223C114.658 4.72191 115.569 4.52171 116.55 4.52171C117.972 4.52171 119.145 4.81856 120.07 5.41225C120.995 6.00594 121.693 6.77911 122.162 7.73178L120.733 8.72587C120.305 7.86985 119.718 7.23474 118.973 6.82053C118.227 6.40633 117.406 6.19923 116.508 6.19923C115.763 6.19923 115.086 6.35801 114.479 6.67556C113.871 6.99312 113.346 7.42803 112.905 7.9803C112.477 8.51876 112.145 9.13316 111.911 9.8235C111.69 10.5138 111.579 11.2318 111.579 11.9774C111.579 12.7643 111.703 13.5099 111.952 14.214C112.214 14.9044 112.58 15.5188 113.05 16.0572C113.519 16.5819 114.064 16.9961 114.686 17.2999C115.307 17.6036 115.977 17.7555 116.695 17.7555C117.537 17.7555 118.338 17.5415 119.097 17.1135C119.856 16.6855 120.574 16.0296 121.251 15.146V17.072C119.925 18.646 118.358 19.433 116.55 19.433ZM121.023 13.4064H117.854V11.9981H122.597V19.3294H121.023V13.4064Z" fill="white"/>
<path d="M129.863 19.5365C129.049 19.5365 128.31 19.3916 127.648 19.1016C126.985 18.7979 126.412 18.3906 125.929 17.8797C125.445 17.3551 125.073 16.7545 124.81 16.078C124.548 15.4014 124.417 14.6904 124.417 13.9448C124.417 13.1854 124.548 12.4675 124.81 11.791C125.073 11.1144 125.445 10.5207 125.929 10.0099C126.412 9.48524 126.985 9.07794 127.648 8.788C128.324 8.48425 129.063 8.33237 129.863 8.33237C130.678 8.33237 131.417 8.48425 132.079 8.788C132.742 9.07794 133.315 9.48524 133.798 10.0099C134.295 10.5207 134.675 11.1144 134.937 11.791C135.2 12.4675 135.331 13.1854 135.331 13.9448C135.331 14.6904 135.2 15.4014 134.937 16.078C134.675 16.7545 134.302 17.3551 133.819 17.8797C133.336 18.3906 132.756 18.7979 132.079 19.1016C131.417 19.3916 130.678 19.5365 129.863 19.5365ZM126.281 13.9655C126.281 14.7111 126.439 15.3876 126.757 15.9951C127.088 16.6026 127.523 17.0858 128.062 17.4448C128.6 17.79 129.201 17.9626 129.863 17.9626C130.526 17.9626 131.127 17.7831 131.665 17.4241C132.218 17.0651 132.652 16.5819 132.97 15.9744C133.301 15.3531 133.467 14.6697 133.467 13.9241C133.467 13.1785 133.301 12.502 132.97 11.8945C132.652 11.287 132.218 10.8038 131.665 10.4448C131.127 10.0858 130.526 9.90634 129.863 9.90634C129.201 9.90634 128.6 10.0927 128.062 10.4655C127.523 10.8245 127.088 11.3077 126.757 11.9152C126.439 12.5227 126.281 13.2062 126.281 13.9655Z" fill="white"/>
<path d="M137.581 4.21106H139.403V16.5336C139.403 17.1273 139.486 17.4931 139.652 17.6312C139.817 17.7693 140.018 17.8383 140.252 17.8383C140.542 17.8383 140.818 17.8107 141.081 17.7555C141.343 17.6864 141.564 17.6174 141.743 17.5484L142.033 19.0395C141.73 19.1638 141.371 19.2673 140.957 19.3502C140.542 19.433 140.176 19.4744 139.859 19.4744C139.155 19.4744 138.596 19.2742 138.181 18.8738C137.781 18.4734 137.581 17.9143 137.581 17.1963V4.21106Z" fill="white"/>
<path d="M148.249 19.5365C147.435 19.5365 146.689 19.3916 146.013 19.1016C145.35 18.7979 144.77 18.3906 144.273 17.8797C143.79 17.3551 143.41 16.7545 143.134 16.078C142.871 15.4014 142.74 14.6835 142.74 13.9241C142.74 12.9024 142.975 11.9705 143.444 11.1282C143.914 10.286 144.563 9.6095 145.391 9.09865C146.233 8.5878 147.193 8.33237 148.27 8.33237C149.361 8.33237 150.306 8.5947 151.107 9.11936C151.922 9.63021 152.55 10.3067 152.992 11.1489C153.447 11.9774 153.675 12.8748 153.675 13.8413C153.675 13.9793 153.668 14.1174 153.655 14.2555C153.655 14.3797 153.648 14.4764 153.634 14.5454H144.666C144.722 15.2496 144.915 15.8778 145.246 16.43C145.591 16.9685 146.033 17.3965 146.572 17.7141C147.11 18.0178 147.69 18.1697 148.311 18.1697C148.974 18.1697 149.595 18.004 150.175 17.6726C150.769 17.3413 151.176 16.9064 151.397 16.3679L152.971 16.8028C152.736 17.3275 152.384 17.7969 151.915 18.2111C151.459 18.6253 150.914 18.9498 150.279 19.1845C149.658 19.4192 148.981 19.5365 148.249 19.5365ZM144.604 13.2821H151.977C151.922 12.5779 151.722 11.9566 151.376 11.4182C151.031 10.8797 150.589 10.4586 150.051 10.1549C149.513 9.85111 148.919 9.69924 148.27 9.69924C147.635 9.69924 147.048 9.85111 146.51 10.1549C145.971 10.4586 145.529 10.8797 145.184 11.4182C144.853 11.9566 144.659 12.5779 144.604 13.2821Z" fill="white"/>
<path d="M172 19.3294H170.178V13.2821C170.178 12.1499 169.991 11.3146 169.618 10.7762C169.259 10.2377 168.721 9.96847 168.003 9.96847C167.271 9.96847 166.608 10.2377 166.015 10.7762C165.421 11.3008 165 11.9843 164.751 12.8265V19.3294H162.929V13.2821C162.929 12.1361 162.749 11.3008 162.391 10.7762C162.032 10.2377 161.493 9.96847 160.775 9.96847C160.057 9.96847 159.394 10.2308 158.787 10.7555C158.193 11.2663 157.772 11.9497 157.524 12.8058V19.3294H155.701V8.51876H157.358V10.8383C157.8 10.0375 158.373 9.42311 159.077 8.9951C159.781 8.55328 160.575 8.33237 161.459 8.33237C162.356 8.33237 163.074 8.58089 163.612 9.07794C164.151 9.56117 164.482 10.1894 164.606 10.9626C165.09 10.1065 165.677 9.45762 166.367 9.01581C167.057 8.56018 167.844 8.33237 168.728 8.33237C169.349 8.33237 169.867 8.44973 170.281 8.68445C170.709 8.90535 171.047 9.22291 171.296 9.63711C171.544 10.0375 171.724 10.5138 171.834 11.0661C171.945 11.6184 172 12.219 172 12.8679V19.3294Z" fill="white"/>
<path d="M95.3581 0L92.9313 2.42497L93.5013 5.27167H99.5873L100.157 2.42497L98.7826 1.05099L97.6551 1.63171L98.3383 0.605405L97.7305 0H95.3581ZM93.9875 2.65424L95.8737 3.59812L95.706 4.30938H93.9875V2.65424ZM99.1011 2.65424V4.30938H97.3826L97.215 3.59812L98.5562 2.92661L99.1011 2.65424ZM92.269 3.51863L91.3469 3.97885L91.7912 4.69429L90.781 4.25917L88.8739 5.21309V5.88251L92.7217 5.33442L92.269 3.51863ZM100.82 3.51863L100.367 5.33442L104.215 5.88251V5.21309L100.82 3.51863ZM94.4318 6.03313L91.7786 6.22977L91.502 6.27161L91.1163 8.87816L93.2205 9.9283L95.0857 9.30909L95.3204 10.0203L93.1618 10.74L91.3008 9.81116L92.1558 13.3465L96.1671 13.9155V7.18788L94.4318 6.03313ZM98.6568 6.03313L96.9215 7.18788V13.9155L100.933 13.3465L101.788 9.81116L100.79 10.309L99.9688 11.924L99.1808 10.4931L97.7682 10.0203L98.003 9.30909L99.8682 9.9283L101.972 8.87816L101.587 6.27161L101.31 6.22977L98.6568 6.03313ZM90.7098 6.38457L88.1396 6.74857L86.8804 8.4263L87.033 9.49318L88.0968 9.9283L87.2011 10.6688L87.4723 12.5641L90.1313 12.037V9.63543L90.7098 6.38457ZM102.379 6.38457L102.957 9.63125V12.0328L105.137 12.4679L105.711 11.8947L106.21 8.4263L104.948 6.74857L103.775 6.58122L103.599 7.33013L103.184 6.49754L102.379 6.38457ZM90.1775 12.7942L87.6072 13.3047L88.7809 18.5763L90.7685 18.0827L90.1775 12.7942ZM102.911 12.7942L102.32 18.0827L103.267 18.3169L103.599 17.2375L104.345 18.4132L105.481 13.3047L102.911 12.7942ZM92.181 14.108L91.6026 19.3294H94.9683L96.5443 16.1874L98.1203 19.3294H99.4113L99.8975 18.3672L100.38 19.3294H101.486L100.908 14.108L96.5443 14.7314L94.7881 14.4803L94.5324 15.9196L93.8911 14.3506L92.181 14.108Z" fill="white"/>
</svg>
