<svg width="303" height="108" viewBox="0 0 303 108" fill="none" xmlns="http://www.w3.org/2000/svg">
<path d="M66.0105 0.0723011C58.3475 0.739006 51.4234 4.84366 47.1822 11.2296C44.9491 14.5872 43.5996 18.2661 43.1016 22.3547C42.949 23.6399 42.9731 26.9734 43.1418 28.2827C43.8888 33.9136 46.3468 38.95 50.2667 42.886C56.3393 48.9827 64.8217 51.5371 73.3041 49.8181C79.8908 48.4847 85.843 44.3399 89.5058 38.5403C90.2288 37.3837 91.2891 35.255 91.7469 33.9939C92.759 31.2548 93.3374 28.2024 93.3133 25.7525L93.2972 24.7645L93.233 25.5276C93.1285 26.5959 92.7912 28.4434 92.4699 29.592C91.0642 34.7329 87.819 39.3356 83.3931 42.4522C78.3004 46.0348 72.0028 47.4565 65.8338 46.4123C60.3556 45.4805 55.2228 42.5004 51.6804 38.1869C46.2986 31.6484 44.8768 22.7483 47.9533 14.8683C48.7164 12.9084 50.1141 10.5066 51.5198 8.73946C52.2106 7.87194 54.2026 5.87986 55.0862 5.17299C58.5643 2.40978 62.7332 0.682778 67.2154 0.144594L68.4605 7.87351e-06H67.6171C67.1512 0.00804046 66.4282 0.0321382 66.0105 0.0723011Z" fill="white"/>
<path d="M71.3442 0.546196C74.1797 0.93176 76.3083 1.5824 78.702 2.79532C82.7906 4.87576 86.0759 8.20928 88.1403 12.3943C91.8514 19.8887 90.8393 28.8209 85.5538 35.3675C84.8148 36.2751 83.3931 37.713 82.4372 38.5002C79.2884 41.1188 75.0633 42.8458 70.7096 43.2876C69.5047 43.4081 66.7736 43.3358 65.6089 43.1591C60.9259 42.4281 56.8534 40.3878 53.552 37.0945C51.6724 35.2309 50.5559 33.6726 49.4152 31.3512C48.2103 28.8932 47.5677 26.5878 47.2946 23.7604C47.2304 23.0776 47.2304 23.1258 47.2625 24.2423C47.4071 29.5278 49.7124 34.8775 53.56 38.8857C58.5402 44.0828 65.7535 46.6291 72.9186 45.7215C75.5774 45.3841 77.8586 44.6933 80.3085 43.4723C85.9474 40.6609 90.1726 35.6566 91.9799 29.6242C92.6466 27.4152 92.8715 25.7846 92.8715 23.1981C92.8795 21.0454 92.8153 20.3867 92.4619 18.6195C90.9437 11.0207 85.4092 4.57855 78.0594 1.84748C75.8264 1.02012 73.513 0.546196 71.0711 0.43374L70.2277 0.393577L71.3442 0.546196Z" fill="white"/>
<path d="M66.4122 0.95589C55.536 2.27323 47.5356 11.4866 47.881 22.3145C47.9372 24.0174 48.0979 25.1741 48.4995 26.7806C48.9011 28.355 49.2546 29.2948 50.0257 30.8692C52.066 35.0221 55.2951 38.2431 59.5122 40.3397C62.0505 41.6008 64.4442 42.2353 67.5689 42.4844C68.6693 42.5647 69.1834 42.5325 68.2838 42.4362C66.4122 42.2273 65.2635 41.9944 63.7614 41.5044C57.3675 39.3998 52.4194 34.1224 50.7888 27.6562C50.347 25.881 50.2345 24.9171 50.2265 22.8366C50.2265 20.8446 50.3229 19.953 50.7245 18.2581C51.1904 16.266 52.2507 13.8161 53.3753 12.1131C55.9698 8.19325 59.7291 5.38184 64.2434 3.98417C67.5528 2.96404 71.4486 2.89978 74.9588 3.79139C80.5174 5.22119 85.2245 9.0688 87.7387 14.2418C88.6624 16.1455 89.2568 18.0733 89.5139 20.0011C89.6745 21.2462 89.779 21.6719 89.7388 20.9088C89.6103 18.8686 89.3452 17.2942 88.8552 15.6796C86.7426 8.68323 81.0636 3.26927 73.9628 1.46998C72.2679 1.03622 71.3281 0.931792 69.1031 0.907694C67.9544 0.891629 66.7415 0.915727 66.4122 0.95589Z" fill="white"/>
<path d="M67.6251 6.61885C68.3802 7.85587 68.7095 9.09288 68.6372 10.4263C68.581 11.5107 68.3721 12.2417 67.7777 13.4385C67.1994 14.5952 66.6853 15.3262 64.9342 17.4628C61.8095 21.2783 60.6287 23.3186 59.9218 26.138C59.464 27.9373 59.4158 29.4073 59.7532 31.1102C60.2913 33.8172 62.0746 36.2029 64.4522 37.3997C64.9181 37.6327 65.8419 37.9781 66.0025 37.9781C66.0507 37.9781 65.8901 37.6969 65.6571 37.3515C64.0506 35.0221 63.6731 32.4677 64.5647 30.0097C64.8298 29.2868 64.9583 29.0539 65.0145 29.1904C65.0306 29.2306 65.1832 29.5037 65.3519 29.7848C65.9463 30.805 66.9664 31.6805 67.9464 32.0259C68.1874 32.1143 68.3882 32.1705 68.4043 32.1544C68.4203 32.1384 68.332 31.9697 68.1954 31.7769C67.4082 30.6202 67.111 29.1824 67.4162 27.9775C67.6251 27.1501 68.1311 26.2505 69.3039 24.6359C69.9304 23.7764 70.565 22.8527 70.7257 22.5796C71.0229 22.0735 71.1514 22.0414 71.1514 22.4591C71.1514 22.8045 71.4727 24.2504 71.7297 25.0376C72.0992 26.1943 72.5089 27.1983 73.28 28.7888C74.7821 31.8894 75.0472 32.9336 74.7179 34.508C74.4849 35.6486 73.9708 36.6527 73.1836 37.5041L72.7418 37.9781H73.272C75.2721 37.9781 77.4168 36.7089 78.6779 34.7891C80.3085 32.299 80.4772 28.9655 79.1438 25.4071C78.7743 24.4191 78.3325 23.5355 77.1839 21.4791C75.8344 19.0613 75.5292 18.1295 75.5934 16.7319C75.6416 15.5993 76.0513 14.6032 76.8063 13.7438L77.0312 13.4787H76.718C76.5413 13.4787 76.1236 13.551 75.7942 13.6313C74.4207 13.9847 73.2881 14.8041 72.3322 16.1294C72.2117 16.2981 72.1956 16.3061 72.2278 16.1696C72.4607 15.2137 72.5009 13.3341 72.3161 12.2015C71.8984 9.63107 70.3722 7.46227 68.2998 6.48229C67.2395 5.98427 67.2315 5.98427 67.6251 6.61885Z" fill="white"/>
<path d="M234.769 0.0242002C230.223 0.385667 226.15 1.75924 222.519 4.17705C217.081 7.79171 213.218 13.4226 211.844 19.7201C211.386 21.8246 211.314 22.5235 211.314 25.1582C211.314 27.7928 211.386 28.4917 211.844 30.5962C213.491 38.1549 218.696 44.6532 225.757 47.9627C230.303 50.0993 235.532 50.8223 240.512 50.011C249.003 48.6213 256.248 42.9423 259.614 35.0382C260.883 32.0581 261.518 29.1423 261.598 25.9213L261.63 24.5156L261.518 25.5196C261.068 29.4636 260.024 32.5481 258.056 35.721C257.164 37.1669 256.2 38.3637 254.738 39.8176C252.682 41.874 251.003 43.0789 248.505 44.3159C246.328 45.3842 244.007 46.1152 241.549 46.5007C239.998 46.7417 236.44 46.7658 234.93 46.5409C228.094 45.5288 222.295 41.882 218.543 36.2431C216.599 33.3273 215.451 30.3392 214.872 26.7245C214.712 25.7204 214.688 25.2626 214.688 23.391C214.696 21.0615 214.776 20.194 215.178 18.3706C216.391 12.9085 219.459 8.13711 223.933 4.74736C227.467 2.08054 231.436 0.554351 236.135 0.0643631L236.777 0.000102449H235.934C235.468 0.000102449 234.946 0.0161676 234.769 0.0242002Z" fill="white"/>
<path d="M239.067 0.465967C241.444 0.795304 242.328 0.980053 243.846 1.47004C251.204 3.87178 256.698 10.0408 258.224 17.5995C258.546 19.206 258.618 20.0092 258.618 21.8648C258.618 24.1139 258.417 25.624 257.855 27.6081C256.473 32.4919 253.405 36.7572 249.268 39.5686C246.473 41.4643 243.509 42.621 240.03 43.1672C238.721 43.376 235.315 43.376 234.006 43.1672C229.219 42.4121 225.082 40.3478 221.756 37.0383C218.439 33.7369 216.182 29.1021 215.692 24.5959C215.547 23.2624 215.523 23.0938 215.483 23.1339C215.403 23.2142 215.635 25.8811 215.82 26.9655C216.985 33.8815 221.355 39.8899 227.684 43.2716C231.251 45.1753 235.701 46.1232 239.725 45.8501C243.991 45.5529 247.629 44.3319 251.075 42.0266C253.614 40.3397 255.734 38.2111 257.421 35.6808C262.441 28.1302 262.473 18.3144 257.501 10.7396C255.606 7.83988 253.156 5.48633 250.184 3.68703C247.099 1.83151 243.766 0.771206 240.006 0.465967C238.809 0.361544 238.32 0.369576 239.067 0.465967Z" fill="white"/>
<path d="M235.01 0.915802C234.833 0.931867 234.239 1.02023 233.693 1.10858C225.403 2.42593 218.608 8.73954 216.696 16.8846C216.278 18.6598 216.214 19.3185 216.214 21.664C216.214 24.0095 216.278 24.6682 216.696 26.4434C218.543 34.3314 224.961 40.5084 232.962 42.0989C233.516 42.2113 234.327 42.3318 234.769 42.38C235.99 42.5005 237.107 42.5648 237.058 42.5166C237.034 42.4925 236.528 42.4202 235.942 42.3479C233.693 42.0908 231.604 41.4723 229.548 40.4683C223.532 37.5123 219.491 31.8894 218.624 25.2545C218.391 23.4311 218.487 20.7242 218.865 18.8927C220.327 11.7116 225.853 5.80765 232.922 3.87179C237.701 2.56248 242.625 3.02837 247.027 5.21323C252.529 7.93628 256.433 12.9888 257.622 18.9329C257.75 19.5755 257.887 20.4189 257.927 20.8205L257.999 21.5435L258.007 20.9812C258.031 19.8647 257.782 18.0975 257.381 16.5231C256.682 13.7519 255.228 10.8521 253.389 8.57085C252.626 7.62301 251.228 6.23337 250.256 5.46224C247.075 2.93198 243.332 1.38169 239.372 0.947932C238.649 0.867606 235.757 0.843509 235.01 0.915802Z" fill="white"/>
<path d="M240.569 7.14909C240.263 8.35398 239.645 9.49461 238.673 10.6192C238.408 10.9244 237.564 11.7437 236.809 12.4265C234.263 14.7319 233.267 16.1295 232.432 18.5714C232.175 19.3345 232.126 19.5835 232.094 20.3466C232.054 21.3507 232.167 21.9291 232.56 22.7644C232.689 23.0456 232.777 23.2705 232.761 23.2705C232.689 23.2705 232.046 22.2664 231.853 21.8407C231.741 21.5917 231.588 21.1338 231.516 20.8286L231.379 20.2663L231.195 20.9491C230.456 23.6882 230.592 26.4675 231.604 29.4797C232.11 30.9737 232.954 32.8293 233.693 34.0663L233.837 34.2992L233.966 33.986C234.384 33.014 235.781 29.4636 236.223 28.2828C237.709 24.2424 238.617 20.2743 238.874 16.74C238.906 16.3062 238.954 15.9448 238.978 15.9287C239.099 15.8484 238.866 19.4711 238.657 20.8607C238.054 24.8449 237.267 27.4956 234.914 33.4719C234.536 34.4197 233.95 36.0102 233.604 37.0062C233.259 38.0023 232.898 39.0063 232.809 39.2393C232.681 39.5525 232.665 39.673 232.745 39.6971C232.954 39.7694 233.476 39.8899 233.484 39.8738C233.484 39.8658 233.749 39.0224 234.07 38.0103C234.384 36.9901 234.729 35.9138 234.825 35.6005L235.01 35.0463L235.854 34.476C240.063 31.6645 242.994 28.1864 244.601 24.1139C244.898 23.3428 245.412 21.7041 245.412 21.5033C245.412 21.4551 245.268 21.5917 245.091 21.8086C244.922 22.0335 244.657 22.2986 244.513 22.411C244.256 22.6038 243.621 22.9492 243.525 22.9492C243.501 22.9492 243.782 22.652 244.159 22.2825C244.641 21.8086 244.858 21.5355 244.93 21.3025C244.987 21.1258 245.051 20.4752 245.067 19.8566C245.099 18.9409 245.075 18.5554 244.938 17.7923C244.617 16.0171 243.95 14.0652 242.496 10.6995C241.966 9.46248 241.364 8.04071 241.155 7.55072C240.946 7.0527 240.769 6.62697 240.745 6.61091C240.729 6.59484 240.649 6.83582 240.569 7.14909Z" fill="white"/>
<path d="M120.649 16.2087C114.833 16.787 109.5 19.3173 105.347 23.4782C101.347 27.4704 98.8968 32.4666 98.1418 38.1537C97.9731 39.447 97.949 42.8046 98.1016 44.0416C98.8245 49.9214 101.258 54.9659 105.347 59.0625C107.395 61.1269 109.532 62.637 112.271 63.9624C117.267 66.3802 122.922 67.055 128.401 65.8902C139.02 63.6331 147.02 54.7812 148.201 43.9854C148.265 43.3588 148.313 42.4029 148.313 41.8567L148.297 40.8687L148.233 41.6318C148.064 43.4793 147.534 45.7766 146.859 47.5759C144.401 54.1868 139.124 59.2955 132.377 61.6089C131.212 62.0025 129.573 62.4041 128.24 62.6129C127.236 62.7656 126.77 62.7896 124.826 62.7896C122.898 62.7896 122.408 62.7656 121.42 62.6129C115.364 61.6651 109.958 58.5163 106.287 53.8012C104.929 52.0661 103.532 49.56 102.817 47.6322C99.4109 38.3626 102.062 28.1692 109.532 21.7592C113.179 18.6345 117.492 16.779 122.456 16.2167L123.38 16.1123L122.537 16.1043C122.071 16.1043 121.227 16.1525 120.649 16.2087Z" fill="white"/>
<path d="M126.111 16.6103C128.818 16.9397 131.132 17.6144 133.469 18.7791C137.734 20.9078 141.036 24.2172 143.148 28.4985C146.851 36.009 145.847 44.9091 140.554 51.4717C139.734 52.4838 137.903 54.2671 136.915 55.0141C133.541 57.5524 129.814 58.9983 125.629 59.3919C124.392 59.5043 121.902 59.4481 120.705 59.2714C114.568 58.3557 109.251 55.0141 105.813 49.9054C103.845 46.9815 102.648 43.5677 102.295 39.8647C102.23 39.1819 102.23 39.2301 102.262 40.3466C102.487 48.2908 107.411 55.8736 114.745 59.5525C122.103 63.2395 130.842 62.7334 137.67 58.2271C139.55 56.9821 141.51 55.2149 142.875 53.52C144.715 51.2388 146.225 48.339 147.036 45.5517C147.663 43.3829 147.872 41.7844 147.872 39.2622C147.88 37.1496 147.815 36.4829 147.462 34.7238C146.498 29.8962 143.791 25.2935 140.04 22.0805C136.072 18.6827 131.26 16.771 126.111 16.538L125.147 16.4979L126.111 16.6103Z" fill="white"/>
<path d="M122.489 16.9798C119.533 17.1565 116.809 17.9116 114.143 19.2932C110.914 20.964 108.327 23.2854 106.279 26.3619C105.588 27.3901 104.536 29.4705 104.11 30.6352C102.889 33.9768 102.552 37.8244 103.178 41.3989C104.64 49.817 111.299 56.5724 119.757 58.2191C120.978 58.4601 124.023 58.7573 123.894 58.6207C123.87 58.5966 123.452 58.5404 122.97 58.4922C114.352 57.6568 107.194 51.1585 105.556 42.6841C105.146 40.5956 105.082 38.0734 105.387 36.0893C106.046 31.7598 108.038 27.8881 111.179 24.8437C114.295 21.8235 118.055 20.0081 122.432 19.4057C123.597 19.253 126.111 19.237 127.236 19.3735C134.023 20.225 139.775 24.2814 142.699 30.2657C143.654 32.2176 144.257 34.1455 144.514 36.1054C144.683 37.4067 144.779 37.7521 144.731 36.9328C144.57 33.9366 143.879 31.2296 142.626 28.6592C138.883 21.0443 131.011 16.4738 122.489 16.9798Z" fill="white"/>
<path d="M123.3 22.7633C118.32 30.5228 114.689 37.5272 113.564 41.5435C113.082 43.2866 113.098 44.9573 113.629 46.6683C115.155 51.5681 120.328 55.2792 124.706 54.6205C125.846 54.4518 126.738 54.1546 127.838 53.5924C131.726 51.5922 134.425 47.2707 134.152 43.4793C133.951 40.676 131.557 35.262 127.3 28.0246C126.433 26.5466 124.432 23.3015 123.942 22.5705L123.669 22.1689L123.3 22.7633Z" fill="white"/>
<path d="M177.917 16.0672C167.876 16.9507 159.265 23.8427 156.157 33.4818C155.377 35.8916 155.064 37.8194 155.008 40.5585C154.936 43.9884 155.353 46.6472 156.478 49.7879C156.912 51.0089 158.076 53.3785 158.791 54.5191C164.253 63.1783 174.302 67.6765 184.383 65.9736C187.974 65.3712 191.476 63.9414 194.48 61.869C200.175 57.941 204.039 51.7399 205.059 44.8961C205.244 43.6912 205.348 42.3337 205.34 41.3618L205.324 40.5183L205.26 41.2011C204.657 47.1934 202.36 52.0371 198.231 56.0694C194.601 59.6038 190.142 61.7806 184.986 62.5437C183.475 62.7606 179.997 62.7445 178.439 62.5035C174.158 61.8368 170.31 60.15 167.009 57.4912C162.96 54.23 159.932 49.3301 158.888 44.3579C158.462 42.3016 158.398 41.6991 158.406 39.3536C158.406 36.8475 158.526 35.7872 159.048 33.7228C161.402 24.3407 169.266 17.3925 178.881 16.1876C179.411 16.1154 179.973 16.0511 180.126 16.035C180.728 15.9708 178.672 16.0029 177.917 16.0672Z" fill="white"/>
<path d="M183.339 16.5411C186.11 16.8945 188.48 17.6255 190.809 18.8384C200.191 23.7303 204.609 34.6546 201.243 44.6551C200.175 47.836 198.424 50.6314 195.998 53.0492C192.641 56.3907 188.504 58.4471 183.724 59.162C182.568 59.3307 179.973 59.3949 178.825 59.2825C172.166 58.6318 166.326 55.1457 162.727 49.6755C160.84 46.8079 159.643 43.4021 159.329 40.0043C159.281 39.4982 159.225 39.0645 159.193 39.0404C159.08 38.9279 159.321 41.7313 159.53 43.0085C160.687 49.9406 165.282 56.1498 171.651 59.3949C174.061 60.6239 176.752 61.4272 179.604 61.7726C180.76 61.9172 183.564 61.8931 184.793 61.7324C187.5 61.387 189.821 60.6882 192.223 59.5154C196.866 57.2342 200.802 53.1777 202.89 48.5268C206.167 41.2252 205.436 32.8794 200.946 26.3408C198.681 23.0314 195.661 20.4449 191.998 18.6697C189.187 17.3042 186.287 16.5813 183.058 16.4286L182.174 16.3885L183.339 16.5411Z" fill="white"/>
<path d="M179.564 16.8624C175.194 17.1275 171.113 18.6858 167.675 21.4089C166.711 22.1719 164.936 23.9873 164.213 24.9352C161.972 27.8831 160.687 30.8712 160.068 34.5743C159.956 35.2811 159.924 35.8996 159.924 37.6668C159.924 40.0123 159.988 40.671 160.406 42.4462C162.382 50.8884 169.619 57.3386 178.238 58.3427C179.443 58.4792 181.009 58.5676 180.648 58.4712C180.519 58.4391 180.254 58.4069 180.07 58.3989C179.443 58.3828 177.435 57.9973 176.431 57.7081C173.17 56.7603 170.463 55.1457 167.989 52.6877C164.816 49.539 162.912 45.6833 162.334 41.2574C162.197 40.1569 162.173 37.7873 162.302 36.6386C162.767 32.3251 164.84 28.0357 167.956 24.9352C172.334 20.5735 178.327 18.5412 184.528 19.3123C192.825 20.3486 199.685 26.7184 201.324 34.9116C201.46 35.5623 201.605 36.4218 201.645 36.8234L201.725 37.5463L201.693 36.5342C201.557 32.4376 199.854 28.0036 197.107 24.5737C195.886 23.0475 194.014 21.3767 192.255 20.212C190.576 19.1115 187.974 17.9709 185.998 17.4649C184.03 16.9668 181.612 16.7419 179.564 16.8624Z" fill="white"/>
<path d="M173.579 24.7022C173.491 24.7183 173.218 24.7745 172.977 24.8227C171.836 25.0476 170.503 25.9794 169.868 27.0076C169.282 27.9393 169.049 28.7265 169.041 29.7627C169.041 31.1925 169.563 32.4135 170.639 33.4899C171.234 34.0843 171.234 34.2289 170.639 33.6746C170.206 33.273 168.784 33.0802 167.715 33.273C164.984 33.763 163.097 36.0603 163.097 38.8637C163.105 40.6308 163.763 42.157 165.008 43.2896C165.619 43.8439 166.695 44.4222 167.507 44.623C168.294 44.8158 169.627 44.7515 170.398 44.4704C173.531 43.3539 174.575 39.4902 172.35 37.2893C170.479 35.4498 167.442 36.1486 166.824 38.5504C166.511 39.7633 167.073 41.0325 168.173 41.6188C168.471 41.7795 168.639 41.8036 169.322 41.8036C170.278 41.8036 170.615 41.667 171.242 41.0084C171.483 40.7674 171.571 40.7031 171.467 40.8477C171.21 41.2172 170.752 41.6028 170.334 41.7955C169.812 42.0365 168.752 42.0285 168.222 41.7875C167.659 41.5305 167.089 40.9602 166.824 40.3738C166.623 39.9481 166.591 39.7794 166.599 39.193C166.599 38.221 166.816 37.707 167.507 37.0162C168.181 36.3414 168.695 36.1245 169.708 36.0763C170.816 36.0282 171.684 36.3414 172.447 37.0804C173.796 38.3737 174.134 40.2854 173.338 42.1811C173.29 42.2936 173.403 42.2695 173.876 42.0526C175.515 41.2975 176.937 40.9602 178.519 40.9602C180.375 40.9602 181.178 41.1449 185.186 42.4863C188.793 43.6912 189.339 43.8117 191.251 43.8117C192.865 43.8117 193.364 43.7234 194.4 43.2494C195.46 42.7675 196.119 42.2132 196.681 41.3457C197.524 40.0364 197.532 38.4219 196.705 37.2089C196.368 36.719 196.038 36.4539 195.404 36.1567C195.018 35.9719 194.833 35.9398 194.263 35.9398C193.693 35.9398 193.508 35.9719 193.131 36.1486C192.215 36.5824 191.677 37.3776 191.669 38.3094C191.669 38.6066 191.717 38.952 191.789 39.1207C191.958 39.5143 192.384 39.9802 192.745 40.1649C193.163 40.3738 193.918 40.3738 194.335 40.1569C195.323 39.6589 195.364 38.3576 194.408 37.9961C194.086 37.8756 193.725 37.972 193.444 38.2612C193.251 38.446 193.219 38.4701 193.291 38.3255C193.524 37.8837 194.215 37.707 194.649 37.9801C195.331 38.4138 195.428 39.3215 194.842 39.94C194.488 40.3176 194.086 40.4782 193.532 40.4782C192.898 40.4782 192.448 40.2694 192.014 39.7794C191.018 38.6387 191.428 36.8635 192.882 36.0442C193.339 35.7791 193.661 35.3855 194.006 34.6305C194.175 34.261 194.223 34.02 194.247 33.4015C194.303 32.1886 194.038 31.4496 193.251 30.6062C191.813 29.0559 189.395 29.0318 187.869 30.5499C187.596 30.823 187.299 31.1925 187.203 31.3853C186.954 31.8673 186.929 31.803 187.154 31.2488C187.917 29.3852 187.283 27.3128 185.636 26.2445C184.656 25.6099 183.259 25.4251 182.19 25.7866C180.793 26.2525 179.604 27.6341 179.435 28.9595C179.379 29.4173 179.242 29.5539 179.242 29.1603C179.242 28.7988 178.937 27.8751 178.624 27.3048C178.182 26.5095 177.258 25.634 176.423 25.2324C175.499 24.7825 174.31 24.5576 173.579 24.7022Z" fill="white"/>
<path d="M197.798 40.438C197.532 41.0646 196.818 42.0847 196.263 42.655C194.681 44.2535 192.432 45.0327 190.207 44.7435C189.13 44.5989 187.925 44.2616 185.869 43.5306C182.19 42.2132 181.355 42.0044 179.435 41.9482C178.367 41.916 177.885 41.9321 177.266 42.0365C175.82 42.2855 174.334 42.8719 173.129 43.6671C172.567 44.0286 171.178 45.2094 171.234 45.2656C171.25 45.2817 171.619 45.121 172.061 44.8961C173.764 44.0447 175.13 43.7314 177.154 43.7314C179.162 43.7314 179.885 43.9081 182.985 45.1451C185.877 46.2938 186.913 46.6312 188.359 46.8641C189.203 47.0007 190.705 47.0167 191.452 46.8962C194.343 46.4384 196.785 44.3981 197.669 41.7233C197.822 41.2574 198.047 40.1328 197.998 40.0846C197.974 40.0685 197.886 40.2292 197.798 40.438Z" fill="white"/>
<path d="M197.597 43.2736C197.267 44.0286 196.536 45.0809 195.894 45.7315C194.255 47.3862 192.191 48.1895 189.845 48.0851C188.351 48.0208 187.098 47.7075 184.327 46.6954C180.174 45.1773 178.632 44.8399 176.35 44.9202C175.025 44.9684 174.109 45.1291 173.001 45.4986C171.499 46.0046 169.908 46.9525 168.824 47.9887L168.197 48.5911L169.057 48.1413C171.78 46.7436 174.784 46.3259 177.579 46.9766C178.559 47.2095 179.772 47.6272 181.676 48.3983C185.347 49.8844 186.978 50.294 189.162 50.294C190.287 50.286 190.906 50.2057 191.813 49.9406C194.456 49.1695 196.689 47.0167 197.5 44.4543C197.701 43.8037 197.91 42.8157 197.862 42.7595C197.846 42.7434 197.725 42.9764 197.597 43.2736Z" fill="white"/>
<path d="M0.820435 66.8876L11.0945 48.2293L21.4485 53.9306L20.7829 55.1395L11.7691 50.1761L2.16068 67.6256L0.820435 66.8876Z" fill="white"/>
<path d="M25.0225 79.6346C24.0227 79.176 23.1831 78.5599 22.5037 77.7863C21.8426 77.021 21.3572 76.1603 21.0476 75.2042C20.7463 74.2299 20.6272 73.2182 20.6903 72.169C20.7535 71.1198 21.0101 70.1044 21.4604 69.1227C21.9189 68.1228 22.521 67.2658 23.2666 66.5516C24.0205 65.8192 24.8608 65.2584 25.7874 64.8693C26.7405 64.4703 27.7227 64.2717 28.734 64.2734C29.7719 64.2653 30.7816 64.4864 31.7633 64.9366C32.745 65.3868 33.5623 66.0037 34.2151 66.7871C34.8763 67.5524 35.3666 68.4264 35.686 69.409C36.0138 70.3735 36.1461 71.3803 36.083 72.4295C36.0282 73.4605 35.7716 74.4759 35.313 75.4758C34.8628 76.4575 34.2607 77.3145 33.5067 78.0469C32.7528 78.7793 31.8993 79.3449 30.9462 79.7439C30.0196 80.1331 29.0416 80.3226 28.0121 80.3126C27.0007 80.3108 26.0042 80.0848 25.0225 79.6346ZM22.7988 69.8025C22.2902 70.9115 22.0687 72.0421 22.1344 73.1943C22.2265 74.3367 22.5657 75.3724 23.1518 76.3013C23.7379 77.2302 24.54 77.9281 25.558 78.395C26.5761 78.8619 27.6283 79.0144 28.7146 78.8525C29.8275 78.6808 30.842 78.244 31.7581 77.5419C32.7006 76.8301 33.4262 75.9196 33.9348 74.8107C34.4434 73.7018 34.6557 72.567 34.5719 71.4064C34.5063 70.2542 34.1713 69.2094 33.567 68.2722C32.9892 67.3251 32.2004 66.6223 31.2006 66.1637C30.1825 65.6968 29.1261 65.5534 28.0314 65.7334C26.9367 65.9135 25.9222 66.3503 24.988 67.044C24.0538 67.7377 23.324 68.6572 22.7988 69.8025Z" fill="white"/>
<path d="M47.5609 88.9067C46.303 88.4451 45.297 87.7031 44.543 86.6809C43.8146 85.6467 43.3257 84.5406 43.0762 83.3625L39.7177 92.5158L38.3095 91.9991L45.8843 71.3549L47.1798 71.8303L46.1051 74.7594C47.0504 74.041 48.1274 73.5734 49.3361 73.3564C50.5516 73.1207 51.7133 73.2061 52.8211 73.6126C53.8538 73.9915 54.7134 74.5519 55.3998 75.2938C56.0932 76.0168 56.6153 76.8582 56.9663 77.8178C57.3428 78.7655 57.5348 79.752 57.5421 80.7773C57.5681 81.8094 57.402 82.8137 57.0438 83.79C56.5478 85.1419 55.8045 86.2965 54.8141 87.254C53.8306 88.1926 52.7044 88.8233 51.4356 89.146C50.1856 89.4756 48.894 89.3958 47.5609 88.9067ZM47.688 87.5153C48.5517 87.8322 49.387 87.9363 50.1938 87.8275C51.0194 87.7257 51.7865 87.4639 52.4952 87.0422C53.2038 86.6205 53.8273 86.0823 54.3658 85.4278C54.9042 84.7732 55.3181 84.0516 55.6074 83.263C55.9174 82.4181 56.06 81.565 56.0352 80.7037C56.0172 79.8237 55.8428 78.9927 55.5118 78.2109C55.1997 77.4359 54.7489 76.7486 54.1594 76.1488C53.5956 75.5372 52.9006 75.0798 52.0744 74.7766C51.5675 74.5906 50.9851 74.4941 50.3273 74.4871C49.6882 74.4869 49.0369 74.5782 48.3734 74.7608C47.7287 74.9503 47.1477 75.2271 46.6307 75.5913C46.1205 75.9367 45.7348 76.3491 45.4737 76.8285L43.7066 81.6445C43.7828 82.482 43.9735 83.2976 44.2788 84.0914C44.6097 84.8732 45.0665 85.5734 45.6491 86.1919C46.2385 86.7917 46.9182 87.2328 47.688 87.5153Z" fill="white"/>
<path d="M69.6529 96.0303C68.5937 95.7334 67.6683 95.2559 66.8766 94.5977C66.1041 93.945 65.4904 93.1705 65.0354 92.2744C64.5858 91.3591 64.3103 90.3783 64.2089 89.3321C64.1076 88.2859 64.2027 87.2429 64.4942 86.203C64.7912 85.1438 65.2522 84.2033 65.8772 83.3815C66.5076 82.5405 67.2501 81.8555 68.1046 81.3265C68.9838 80.7837 69.923 80.4343 70.9222 80.2782C71.9461 80.1083 72.978 80.1691 74.0179 80.4606C75.0578 80.7522 75.9613 81.2339 76.7283 81.906C77.5008 82.5587 78.1215 83.3455 78.5903 84.2662C79.0646 85.1677 79.3524 86.1415 79.4538 87.1877C79.5605 88.2147 79.4654 89.2577 79.1685 90.3169C78.8769 91.3568 78.4159 92.2973 77.7855 93.1383C77.1551 93.9794 76.4003 94.6713 75.5211 95.2141C74.6666 95.7431 73.7301 96.0829 72.7116 96.2336C71.7124 96.3896 70.6928 96.3219 69.6529 96.0303ZM65.9223 86.6657C65.593 87.8404 65.5507 88.9917 65.7953 90.1196C66.0645 91.2336 66.5611 92.2037 67.285 93.0297C68.0089 93.8558 68.91 94.42 69.9884 94.7224C71.0669 95.0247 72.13 95.0112 73.1778 94.6818C74.2503 94.3386 75.1842 93.7488 75.9794 92.9124C76.7994 92.0622 77.374 91.0497 77.7034 89.875C78.0327 88.7003 78.0654 87.5463 77.8016 86.413C77.5569 85.2851 77.0631 84.3054 76.3199 83.4739C75.6014 82.6286 74.7126 82.0575 73.6535 81.7605C72.575 81.4582 71.5092 81.4813 70.456 81.83C69.4028 82.1786 68.4689 82.7684 67.6544 83.5994C66.8398 84.4303 66.2625 85.4524 65.9223 86.6657Z" fill="white"/>
<path d="M83.5311 103.08L84.5042 98.1956L84.7396 98.2425C85.2103 98.3363 85.6614 98.2732 86.0927 98.0532C86.5436 97.8372 86.9884 97.3956 87.4272 96.7285C87.8661 96.0614 88.3007 95.1079 88.7313 93.8681C89.1815 92.6323 89.6314 91.0395 90.081 89.0898L91.0194 84.9942L100.552 86.8935L97.7734 100.839L99.8329 101.25L98.8598 106.134L97.5064 105.864L98.2099 102.333L85.5585 99.8128L84.8551 103.343L83.5311 103.08ZM87.2404 98.7408L96.3023 100.546L98.8171 87.9244L92.109 86.5878L91.4462 89.4536C90.9927 91.4229 90.535 93.0549 90.0731 94.3496C89.6151 95.6247 89.153 96.6135 88.6867 97.3159C88.244 98.0026 87.7619 98.4776 87.2404 98.7408Z" fill="white"/>
<path d="M121.891 105.639L123.086 90.0851L124.581 90.2L124.051 97.1096L133.652 97.8472L134.183 90.9376L135.679 91.0524L134.484 106.607L132.988 106.492L133.549 99.1932L123.947 98.4557L123.387 105.754L121.891 105.639Z" fill="white"/>
<path d="M151.747 107.341C150.647 107.341 149.627 107.131 148.687 106.711C147.747 106.271 146.927 105.681 146.227 104.941C145.547 104.181 145.007 103.311 144.607 102.331C144.227 101.331 144.037 100.281 144.037 99.1808C144.037 97.7008 144.367 96.3608 145.027 95.1608C145.687 93.9608 146.597 93.0008 147.757 92.2808C148.917 91.5408 150.217 91.1708 151.657 91.1708C153.137 91.1708 154.447 91.5408 155.587 92.2808C156.727 93.0208 157.627 94.0008 158.287 95.2208C158.967 96.4208 159.307 97.7408 159.307 99.1808C159.307 99.3008 159.307 99.4208 159.307 99.5408C159.307 99.6608 159.297 99.7608 159.277 99.8408H145.597C145.677 101.021 146.007 102.091 146.587 103.051C147.167 104.011 147.907 104.771 148.807 105.331C149.727 105.871 150.727 106.141 151.807 106.141C152.887 106.141 153.907 105.861 154.867 105.301C155.827 104.741 156.497 104.021 156.877 103.141L158.197 103.501C157.897 104.241 157.417 104.901 156.757 105.481C156.117 106.061 155.357 106.521 154.477 106.861C153.617 107.181 152.707 107.341 151.747 107.341ZM145.537 98.6708H157.867C157.787 97.4508 157.467 96.3708 156.907 95.4308C156.347 94.4908 155.607 93.7508 154.687 93.2108C153.787 92.6708 152.787 92.4008 151.687 92.4008C150.587 92.4008 149.587 92.6708 148.687 93.2108C147.787 93.7508 147.057 94.4908 146.497 95.4308C145.937 96.3708 145.617 97.4508 145.537 98.6708Z" fill="white"/>
<path d="M181.497 105.656L179.63 90.1677L181.119 89.9882L181.949 96.8683L191.51 95.7155L190.68 88.8353L192.169 88.6558L194.037 104.144L192.547 104.323L191.671 97.0558L182.11 98.2086L182.987 105.476L181.497 105.656Z" fill="white"/>
<path d="M202.404 98.3177C202.222 97.3955 202.34 96.5466 202.758 95.771C203.171 94.9757 203.822 94.2967 204.71 93.7341C205.594 93.1517 206.664 92.7366 207.919 92.4886C208.704 92.3335 209.532 92.2414 210.403 92.2121C211.274 92.1828 212.066 92.22 212.78 92.3237L212.495 90.8815C212.216 89.4688 211.581 88.422 210.59 87.7411C209.619 87.0563 208.417 86.8553 206.985 87.1382C206.22 87.2893 205.456 87.6033 204.694 88.08C203.932 88.5567 203.177 89.1746 202.43 89.9337L201.603 88.9963C202.472 88.1315 203.335 87.4413 204.191 86.9256C205.063 86.3864 205.96 86.0257 206.882 85.8436C208.707 85.4832 210.256 85.7379 211.528 86.6078C212.801 87.4777 213.621 88.8446 213.99 90.7086L215.489 98.3019C215.536 98.5374 215.62 98.7043 215.741 98.8026C215.882 98.8971 216.062 98.9328 216.282 98.9098L216.52 100.117C216.348 100.171 216.203 100.21 216.085 100.233C215.967 100.256 215.869 100.276 215.79 100.291C215.406 100.306 215.081 100.207 214.815 99.9948C214.568 99.7785 214.404 99.5153 214.322 99.2052L214.084 97.9985C213.552 99.021 212.775 99.8879 211.754 100.599C210.752 101.307 209.643 101.781 208.426 102.021C207.465 102.211 206.551 102.177 205.685 101.92C204.838 101.659 204.119 101.22 203.529 100.603C202.953 99.9624 202.579 99.2006 202.404 98.3177ZM213.191 97.5022C213.337 97.2083 213.435 96.934 213.487 96.6792C213.539 96.4243 213.545 96.1988 213.506 96.0026L213.006 93.4715C212.246 93.3363 211.469 93.2756 210.677 93.2894C209.884 93.3032 209.086 93.3896 208.282 93.5485C206.751 93.8507 205.565 94.4009 204.724 95.1991C203.902 95.9933 203.594 96.9104 203.8 97.9503C203.928 98.5978 204.212 99.1633 204.655 99.6468C205.097 100.13 205.645 100.481 206.299 100.698C206.974 100.911 207.703 100.941 208.488 100.786C209.587 100.569 210.556 100.163 211.397 99.5689C212.254 98.9512 212.852 98.2623 213.191 97.5022Z" fill="white"/>
<path d="M226.311 97.8217L222.158 82.8158L223.604 82.4157L227.213 95.4555L233.369 79.6821L234.699 79.314L238.86 94.3489L237.414 94.749L233.861 81.9115L227.757 97.4216L226.311 97.8217ZM227.848 78.9687C226.615 79.3101 225.561 79.2904 224.688 78.9095C223.829 78.504 223.274 77.8483 223.023 76.9424L224.122 76.6383C224.298 77.2744 224.692 77.7255 225.305 77.9915C225.919 78.2576 226.678 78.2653 227.584 78.0146C228.509 77.7585 229.16 77.371 229.535 76.8522C229.905 76.314 230.009 75.7146 229.846 75.0539L230.945 74.7498C231.196 75.6558 231.047 76.5062 230.499 77.3011C229.966 78.0714 229.082 78.6273 227.848 78.9687Z" fill="white"/>
<path d="M248.218 95.2257L246.526 90.5419L246.752 90.4604C247.204 90.2973 247.557 90.0101 247.812 89.5989C248.087 89.1808 248.239 88.5728 248.27 87.7749C248.301 86.977 248.18 85.9361 247.907 84.6523C247.654 83.3617 247.216 81.7657 246.592 79.8643L245.278 75.8734L254.42 72.5709L259.251 85.9449L261.227 85.2314L262.919 89.9152L261.621 90.384L260.398 86.9982L248.265 91.3812L249.488 94.767L248.218 95.2257ZM249.15 89.594L257.841 86.4546L253.468 74.3502L247.035 76.6742L247.949 79.4699C248.579 81.3901 249.031 83.0237 249.305 84.3708C249.572 85.699 249.688 86.7843 249.652 87.6266C249.628 88.4433 249.461 89.0991 249.15 89.594Z" fill="white"/>
<path d="M276.551 80.5351C275.548 80.987 274.532 81.2145 273.502 81.2177C272.465 81.2027 271.475 81.0017 270.533 80.6146C269.6 80.201 268.751 79.6296 267.983 78.9005C267.226 78.1448 266.621 77.2656 266.17 76.2627C265.562 74.9133 265.312 73.556 265.421 72.1908C265.53 70.8256 265.965 69.5766 266.727 68.4436C267.48 67.2924 268.514 66.421 269.826 65.8295C271.176 65.2215 272.522 65.0207 273.866 65.227C275.209 65.4334 276.432 65.9571 277.535 66.7983C278.648 67.613 279.5 68.6768 280.092 69.9897C280.141 70.0991 280.19 70.2085 280.24 70.318C280.289 70.4274 280.321 70.5226 280.335 70.6038L267.863 76.2236C268.421 77.2665 269.161 78.1065 270.084 78.7435C271.007 79.3805 271.994 79.7694 273.045 79.9103C274.106 80.0247 275.128 79.86 276.113 79.4163C277.098 78.9727 277.913 78.2984 278.558 77.3934C279.203 76.4885 279.518 75.5568 279.503 74.5984L280.854 74.3844C280.885 75.1823 280.718 75.9812 280.355 76.7811C280.01 77.5729 279.506 78.3045 278.843 78.976C278.19 79.621 277.426 80.1407 276.551 80.5351ZM267.328 75.1815L278.569 70.1163C277.995 69.0369 277.26 68.1837 276.363 67.5567C275.466 66.9297 274.488 66.559 273.427 66.4446C272.385 66.322 271.362 66.4867 270.359 66.9385C269.356 67.3904 268.555 68.0474 267.957 68.9095C267.358 69.7715 266.996 70.7461 266.872 71.8331C266.748 72.9202 266.899 74.0363 267.328 75.1815Z" fill="white"/>
<path d="M291.438 73.0802L283.959 59.3899L285.275 58.6707L288.598 64.7524L297.049 60.1355L293.726 54.0539L295.043 53.3347L302.522 67.025L301.205 67.7441L297.696 61.3202L289.245 65.9371L292.754 72.361L291.438 73.0802Z" fill="white"/>
</svg>
