<svg width="17" height="11" viewBox="0 0 17 11" fill="none" xmlns="http://www.w3.org/2000/svg">
<path d="M6.90795 8.36311C6.3223 9.35545 6.7167 10.1704 7.53015 10.628C8.34275 11.0865 9.265 11.0135 9.85235 10.0212C10.438 9.03047 14.1423 0.184778 13.8202 0.0032211C13.498 -0.178335 7.49445 7.37159 6.90795 8.36311ZM8.5 2.06252C8.8723 2.06252 9.2344 2.09319 9.58885 2.15288C9.96115 1.69775 10.3777 1.19619 10.7831 0.720327C10.0411 0.510864 9.27248 0.40453 8.5 0.404469C3.73405 0.404469 0 4.32493 0 9.32975C0 9.63732 0.0136 9.94489 0.04165 10.2442C0.0833 10.701 0.50065 11.0359 0.96305 10.9969C1.4314 10.9546 1.7765 10.5534 1.73485 10.0966C1.71164 9.84161 1.70001 9.58574 1.7 9.32975C1.7 5.25426 4.6869 2.06252 8.5 2.06252ZM14.6362 3.0988C14.399 3.72057 14.1483 4.35394 13.9273 4.9011C14.79 6.11977 15.3 7.64849 15.3 9.32975C15.3 9.59172 15.2873 9.85618 15.2635 10.1115C15.2525 10.3254 15.3268 10.5352 15.4707 10.6969C15.6147 10.8586 15.8172 10.9598 16.0358 10.9793C16.2545 10.9988 16.4724 10.9351 16.644 10.8014C16.8157 10.6678 16.9277 10.4747 16.9566 10.2624C16.9847 9.95566 17 9.64229 17 9.32975C17 6.88081 16.105 4.6955 14.6362 3.0988Z" fill="white"/>
</svg>
