<svg width="15" height="14" viewBox="0 0 15 14" fill="none" xmlns="http://www.w3.org/2000/svg">
<path d="M14.8068 12.9173L11.0162 9.39641C12.0066 8.2432 12.4861 6.77949 12.3563 5.30622C12.2266 3.83295 11.4973 2.4621 10.3187 1.47555C9.14005 0.488997 7.60142 -0.03827 6.0193 0.00216493C4.43717 0.0425999 2.93175 0.647663 1.81259 1.69294C0.693438 2.73822 0.0456107 4.14426 0.00231794 5.62196C-0.0409749 7.09965 0.523558 8.53666 1.57983 9.63752C2.63612 10.7384 4.10385 11.4195 5.68124 11.5407C7.25864 11.6618 8.82584 11.2139 10.0605 10.2891L13.8304 13.8101C13.8943 13.8702 13.9704 13.918 14.0541 13.9506C14.1379 13.9832 14.2278 14 14.3186 14C14.4093 14 14.4992 13.9832 14.583 13.9506C14.6668 13.918 14.7429 13.8702 14.8068 13.8101C14.9307 13.6903 15 13.5302 15 13.3637C15 13.1971 14.9307 13.0371 14.8068 12.9173ZM6.20294 10.2891C5.25096 10.2891 4.32035 10.0254 3.5288 9.53143C2.73725 9.03747 2.12031 8.33537 1.756 7.51387C1.39169 6.6924 1.29637 5.78849 1.48209 4.91643C1.66782 4.04437 2.12624 3.24333 2.7994 2.61461C3.47256 1.98589 4.33022 1.55773 5.26391 1.38426C6.19761 1.2108 7.16541 1.29982 8.0449 1.64008C8.92445 1.98035 9.67618 2.55656 10.2051 3.29586C10.734 4.03516 11.0162 4.90433 11.0162 5.79348C11.0162 6.98579 10.5092 8.12926 9.60647 8.97237C8.70379 9.8154 7.47952 10.2891 6.20294 10.2891Z" fill="black"/>
</svg>
