<svg width="19" height="17" viewBox="0 0 19 17" fill="none" xmlns="http://www.w3.org/2000/svg">
<path d="M19 3.77778C19 4.77971 18.5996 5.7406 17.887 6.44907C17.1744 7.15754 16.2078 7.55555 15.2 7.55555H2.85C2.59804 7.55555 2.35641 7.45605 2.17825 7.27893C2.00009 7.10182 1.9 6.86159 1.9 6.61111C1.9 6.36063 2.00009 6.12041 2.17825 5.94329C2.35641 5.76617 2.59804 5.66667 2.85 5.66667H15.2C15.5758 5.66667 15.9431 5.55588 16.2556 5.34833C16.568 5.14078 16.8116 4.84577 16.9554 4.50062C17.0992 4.15547 17.1368 3.77568 17.0635 3.40927C16.9902 3.04287 16.8092 2.7063 16.5435 2.44213C16.2778 2.17797 15.9392 1.99807 15.5707 1.92518C15.2021 1.8523 14.8201 1.88971 14.4729 2.03267C14.1257 2.17564 13.829 2.41774 13.6202 2.72837C13.4114 3.03899 13.3 3.40419 13.3 3.77778C13.3 4.02826 13.1999 4.26848 13.0218 4.4456C12.8436 4.62272 12.602 4.72222 12.35 4.72222C12.098 4.72222 11.8564 4.62272 11.6782 4.4456C11.5001 4.26848 11.4 4.02826 11.4 3.77778C11.4 2.77585 11.8004 1.81496 12.513 1.10649C13.2256 0.398015 14.1922 0 15.2 0C16.2078 0 17.1744 0.398015 17.887 1.10649C18.5996 1.81496 19 2.77585 19 3.77778ZM15.2 9.44444H4.75C4.49804 9.44444 4.25641 9.54395 4.07825 9.72107C3.90009 9.89818 3.8 10.1384 3.8 10.3889C3.8 10.6394 3.90009 10.8796 4.07825 11.0567C4.25641 11.2338 4.49804 11.3333 4.75 11.3333H15.2C15.5758 11.3333 15.9431 11.4441 16.2556 11.6517C16.568 11.8592 16.8116 12.1542 16.9554 12.4994C17.0992 12.8445 17.1368 13.2243 17.0635 13.5907C16.9902 13.9571 16.8092 14.2937 16.5435 14.5579C16.2778 14.822 15.9392 15.0019 15.5707 15.0748C15.2021 15.1477 14.8201 15.1103 14.4729 14.9673C14.1257 14.8244 13.829 14.5823 13.6202 14.2716C13.4114 13.961 13.3 13.5958 13.3 13.2222C13.3 12.9717 13.1999 12.7315 13.0218 12.5544C12.8436 12.3773 12.602 12.2778 12.35 12.2778C12.098 12.2778 11.8564 12.3773 11.6782 12.5544C11.5001 12.7315 11.4 12.9717 11.4 13.2222C11.4 13.9694 11.6229 14.6998 12.0404 15.321C12.458 15.9423 13.0514 16.4265 13.7458 16.7124C14.4402 16.9984 15.2042 17.0732 15.9413 16.9274C16.6785 16.7816 17.3556 16.4218 17.887 15.8935C18.4184 15.3652 18.7804 14.692 18.927 13.9592C19.0736 13.2264 18.9984 12.4668 18.7107 11.7765C18.4231 11.0862 17.9361 10.4962 17.3112 10.0811C16.6863 9.66601 15.9516 9.44444 15.2 9.44444ZM5.7 15.1111C5.95196 15.1111 6.19359 15.0116 6.37175 14.8345C6.54991 14.6574 6.65 14.4171 6.65 14.1667C6.65 13.9162 6.54991 13.676 6.37175 13.4988C6.19359 13.3217 5.95196 13.2222 5.7 13.2222H0.95C0.698044 13.2222 0.456408 13.3217 0.278248 13.4988C0.100089 13.676 0 13.9162 0 14.1667C0 14.4171 0.100089 14.6574 0.278248 14.8345C0.456408 15.0116 0.698044 15.1111 0.95 15.1111H5.7ZM0 2.83333C0 3.08382 0.100089 3.32404 0.278248 3.50116C0.456408 3.67827 0.698044 3.77778 0.95 3.77778H8.55C8.80196 3.77778 9.04359 3.67827 9.22175 3.50116C9.39991 3.32404 9.5 3.08382 9.5 2.83333C9.5 2.58285 9.39991 2.34263 9.22175 2.16551C9.04359 1.98839 8.80196 1.88889 8.55 1.88889H0.95C0.698044 1.88889 0.456408 1.98839 0.278248 2.16551C0.100089 2.34263 0 2.58285 0 2.83333Z" fill="white"/>
</svg>
