<svg width="149" height="111" viewBox="0 0 149 111" fill="none" xmlns="http://www.w3.org/2000/svg">
<path d="M0.00198664 73.9972C0.00198664 80.8049 1.69063 87.0207 5.06792 92.6445C8.44521 98.2683 12.9648 102.757 18.6267 106.112C24.2887 109.467 30.4969 111.094 37.2515 110.996H121.137C128.786 110.996 135.342 108.283 140.805 102.856C146.268 97.4296 149 90.9179 149 83.3208V73.9972C149 66.4001 146.268 59.8884 140.805 54.4619C135.342 49.0355 128.786 46.3222 121.137 46.3222C120.939 46.3222 120.69 46.3222 120.392 46.3222C120.094 46.3222 119.846 46.3716 119.647 46.4702C120.641 42.9184 121.137 39.7612 121.137 36.9986C121.137 26.8363 117.462 18.154 110.112 10.9516C102.761 3.74919 94.0197 0.0986629 83.8879 0C74.948 0 67.1008 2.81189 60.3462 8.43568C53.5916 14.0595 49.2707 21.0645 47.3834 29.4509C43.8074 28.3656 40.4301 27.8229 37.2515 27.8229C27.0203 27.8229 18.2294 31.4241 10.8788 38.6265C3.52827 45.8289 -0.0973454 54.5606 0.00198664 64.8215V73.9972Z" fill="white"/>
</svg>
