<svg width="149" height="114" viewBox="0 0 149 114" fill="none" xmlns="http://www.w3.org/2000/svg">
<path d="M14.2176 55.6381C6.3821 55.6381 0 62.0202 0 69.8556C0 77.6911 6.3821 84.0732 14.2176 84.0732C22.053 84.0732 28.4351 77.6911 28.4351 69.8556C28.4351 62.0202 22.053 55.6381 14.2176 55.6381ZM14.2176 77.7543C9.85751 77.7543 6.31891 74.2157 6.31891 69.8556C6.31891 65.4956 9.85751 61.957 14.2176 61.957C18.5776 61.957 22.1162 65.4956 22.1162 69.8556C22.1162 74.2157 18.5776 77.7543 14.2176 77.7543Z" fill="#ABABAB"/>
<path d="M54.3743 85.4949C46.5388 85.4949 40.1567 91.877 40.1567 99.7125C40.1567 107.548 46.5388 113.93 54.3743 113.93C62.2097 113.93 68.5918 107.548 68.5918 99.7125C68.5918 91.877 62.2097 85.4949 54.3743 85.4949ZM54.3743 107.611C50.0142 107.611 46.4756 104.073 46.4756 99.7125C46.4756 95.3524 50.0142 91.8138 54.3743 91.8138C58.7027 91.8138 62.2729 95.3524 62.2729 99.7125C62.2729 104.073 58.7343 107.611 54.3743 107.611Z" fill="#ABABAB"/>
<path d="M94.6257 55.6381C86.7903 55.6381 80.4082 62.0202 80.4082 69.8556C80.4082 77.6911 86.7903 84.0732 94.6257 84.0732C102.493 84.0732 108.843 77.6911 108.843 69.8556C108.843 62.0202 102.461 55.6381 94.6257 55.6381ZM94.6257 77.7543C90.2657 77.7543 86.7271 74.2157 86.7271 69.8556C86.7271 65.4956 90.2657 61.957 94.6257 61.957C98.9858 61.957 102.524 65.4956 102.524 69.8556C102.524 74.2157 98.9858 77.7543 94.6257 77.7543Z" fill="#ABABAB"/>
<path d="M134.782 85.4949C126.947 85.4949 120.565 91.877 120.565 99.7125C120.565 107.548 126.947 113.93 134.782 113.93C142.618 113.93 149 107.548 149 99.7125C149 91.877 142.618 85.4949 134.782 85.4949ZM134.782 107.611C130.422 107.611 126.884 104.073 126.884 99.7125C126.884 95.3524 130.422 91.8138 134.782 91.8138C139.142 91.8138 142.681 95.3524 142.681 99.7125C142.681 104.073 139.142 107.611 134.782 107.611Z" fill="#ABABAB"/>
<path d="M54.3743 73.0151C56.112 73.0151 57.5337 71.5933 57.5337 69.8556V32.732C57.5337 30.9943 56.112 29.5725 54.3743 29.5725C52.6366 29.5725 51.2148 30.9943 51.2148 32.732V69.8556C51.2148 71.5933 52.6366 73.0151 54.3743 73.0151Z" fill="#ABABAB"/>
<path d="M94.6257 43.1582C96.395 43.1582 97.7852 41.7364 97.7852 39.9987V3.15946C97.7852 1.42176 96.3634 0 94.6257 0C92.888 0 91.4663 1.42176 91.4663 3.15946V39.9987C91.4663 41.7364 92.888 43.1582 94.6257 43.1582Z" fill="#ABABAB"/>
<path d="M14.2176 43.1582C15.9553 43.1582 17.377 41.7364 17.377 39.9987V3.15946C17.377 1.42176 15.9553 0 14.2176 0C12.4799 0 11.0581 1.42176 11.0581 3.15946V39.9987C11.0581 41.7364 12.4799 43.1582 14.2176 43.1582Z" fill="#ABABAB"/>
<path d="M134.782 73.0151C136.52 73.0151 137.942 71.5933 137.942 69.8556V32.732C137.942 30.9943 136.52 29.5725 134.782 29.5725C133.045 29.5725 131.623 30.9943 131.623 32.732V69.8556C131.623 71.5933 133.045 73.0151 134.782 73.0151Z" fill="#ABABAB"/>
</svg>
