<svg width="139" height="131" viewBox="0 0 139 131" fill="none" xmlns="http://www.w3.org/2000/svg">
<path d="M139 46.2726C139 54.4924 135.75 62.3756 129.964 68.188C124.179 74.0003 116.332 77.2656 108.15 77.2656H23.3111C19.8986 77.2913 16.5227 76.5583 13.4254 75.1192C10.328 73.6801 7.5859 71.5706 5.39547 68.9417C3.20505 66.3128 1.62057 63.2297 0.755596 59.9133C-0.109379 56.5969 -0.233438 53.1294 0.392308 49.7592C1.01805 46.389 2.37811 43.1995 4.37502 40.4195C6.37192 37.6394 8.95623 35.3375 11.9427 33.6787C14.9293 32.0199 18.244 31.0453 21.6495 30.8248C25.055 30.6043 28.4669 31.1433 31.6407 32.4032C32.8887 24.8429 36.3405 17.8244 41.5596 12.2353C46.7787 6.64618 53.5305 2.73768 60.961 1.00418C68.3915 -0.72933 76.1668 -0.209963 83.3035 2.49658C90.4401 5.20313 96.6174 9.97525 101.054 16.2093C103.376 15.6293 105.757 15.3174 108.15 15.2795C116.332 15.2795 124.179 18.5448 129.964 24.3572C135.75 30.1695 139 38.0527 139 46.2726ZM123.575 122.741V91.7483C123.575 89.6933 122.762 87.7225 121.316 86.2694C119.869 84.8163 117.908 84 115.862 84C113.817 84 111.855 84.8163 110.409 86.2694C108.962 87.7225 108.15 89.6933 108.15 91.7483V122.741C108.15 124.796 108.962 126.767 110.409 128.22C111.855 129.673 113.817 130.49 115.862 130.49C117.908 130.49 119.869 129.673 121.316 128.22C122.762 126.767 123.575 124.796 123.575 122.741ZM61.874 122.741V91.7483C61.874 89.6933 61.0615 87.7225 59.6151 86.2694C58.1687 84.8163 56.2069 84 54.1614 84C52.1159 84 50.1542 84.8163 48.7078 86.2694C47.2614 87.7225 46.4488 89.6933 46.4488 91.7483V122.741C46.4488 124.796 47.2614 126.767 48.7078 128.22C50.1542 129.673 52.1159 130.49 54.1614 130.49C56.2069 130.49 58.1687 129.673 59.6151 128.22C61.0615 126.767 61.874 124.796 61.874 122.741ZM92.7244 107.245V91.7483C92.7244 89.6933 91.9118 87.7225 90.4655 86.2694C89.0191 84.8163 87.0573 84 85.0118 84C82.9663 84 81.0046 84.8163 79.5582 86.2694C78.1118 87.7225 77.2992 89.6933 77.2992 91.7483V107.245C77.2992 109.3 78.1118 111.271 79.5582 112.724C81.0046 114.177 82.9663 114.993 85.0118 114.993C87.0573 114.993 89.0191 114.177 90.4655 112.724C91.9118 111.271 92.7244 109.3 92.7244 107.245ZM31.0237 107.245V91.7483C31.0237 89.6933 30.2111 87.7225 28.7647 86.2694C27.3183 84.8163 25.3566 84 23.3111 84C21.2655 84 19.3038 84.8163 17.8574 86.2694C16.411 87.7225 15.5985 89.6933 15.5985 91.7483V107.245C15.5985 109.3 16.411 111.271 17.8574 112.724C19.3038 114.177 21.2655 114.993 23.3111 114.993C25.3566 114.993 27.3183 114.177 28.7647 112.724C30.2111 111.271 31.0237 109.3 31.0237 107.245Z" fill="#788287"/>
<rect x="15" y="84" width="16.2" height="31" rx="8.1" fill="#3488D5"/>
<rect x="46" y="84" width="16" height="47" rx="8" fill="#3488D5"/>
<rect x="77" y="83" width="16" height="32" rx="8" fill="#3488D5"/>
<rect x="108" y="83" width="16" height="48" rx="8" fill="#3488D5"/>
</svg>
