<svg width="150" height="149" viewBox="0 0 150 149" fill="none" xmlns="http://www.w3.org/2000/svg">
<path d="M74.4859 0.0159759C74.3339 0.0436027 74.1819 0.0850606 74.0438 0.126519C72.3995 0.499604 71.2387 1.97812 71.2802 3.66388V24.8881C71.2664 26.1593 71.9296 27.3476 73.0351 27.9971C74.1405 28.6327 75.4946 28.6327 76.6 27.9971C77.7055 27.3477 78.3687 26.1593 78.3549 24.8881V3.66388C78.3964 2.64137 77.9818 1.66028 77.2495 0.969401C76.5033 0.264687 75.4947 -0.0807356 74.4859 0.0159759ZM24.0785 20.798C22.752 21.0329 21.688 22.0001 21.3149 23.2852C20.9419 24.5841 21.3288 25.9659 22.3098 26.8779L37.3436 41.9117C38.2003 42.9618 39.5683 43.4454 40.8948 43.1415C42.2075 42.8375 43.2438 41.8011 43.5478 40.4884C43.8518 39.1619 43.3682 37.794 42.318 36.9372L27.2842 21.9034C26.5519 21.1158 25.4879 20.7151 24.4101 20.798C24.2996 20.798 24.189 20.798 24.0785 20.798ZM124.451 20.798C123.65 20.9085 122.904 21.3092 122.351 21.9034L107.317 36.9372C106.267 37.7939 105.783 39.1619 106.087 40.4884C106.391 41.8011 107.428 42.8374 108.74 43.1414C110.067 43.4454 111.435 42.9618 112.292 41.9116L127.325 26.8778C128.431 25.8277 128.749 24.1834 128.099 22.8016C127.436 21.406 125.971 20.6046 124.451 20.798ZM74.8176 39.0375C55.3068 39.0375 39.4439 54.9004 39.4439 74.4112C39.4439 93.922 55.3068 109.785 74.8176 109.785C94.3284 109.785 110.191 93.922 110.191 74.4112C110.191 54.9004 94.3284 39.0375 74.8176 39.0375ZM3.0754 70.8738C1.12709 71.1502 -0.240877 72.9603 0.0354976 74.9086C0.311872 76.8569 2.12198 78.2249 4.07032 77.9486H25.2945C26.5658 77.9624 27.7541 77.2991 28.4035 76.1937C29.0392 75.0883 29.0392 73.7342 28.4035 72.6287C27.7541 71.5233 26.5658 70.86 25.2945 70.8739H4.07032C3.95978 70.8739 3.84924 70.8739 3.73869 70.8739C3.62815 70.8739 3.51761 70.8739 3.40707 70.8739C3.29652 70.8739 3.18594 70.8738 3.0754 70.8738ZM123.346 70.8738C121.397 71.1502 120.029 72.9603 120.306 74.9086C120.582 76.8569 122.392 78.2249 124.341 77.9486H145.565C146.836 77.9624 148.024 77.2991 148.674 76.1937C149.31 75.0883 149.31 73.7342 148.674 72.6287C148.024 71.5233 146.836 70.86 145.565 70.8739H124.341C124.23 70.8739 124.12 70.8739 124.009 70.8739C123.899 70.8739 123.788 70.8739 123.677 70.8739C123.567 70.8739 123.456 70.8738 123.346 70.8738ZM39.4439 105.805C38.6425 105.916 37.8963 106.317 37.3436 106.911L22.3098 121.944C21.2597 122.801 20.7761 124.169 21.08 125.496C21.384 126.808 22.4204 127.845 23.733 128.149C25.0596 128.453 26.4275 127.969 27.2842 126.919L42.318 111.885C43.3682 110.876 43.686 109.315 43.1195 107.975C42.5667 106.634 41.2264 105.778 39.7756 105.805C39.665 105.805 39.5545 105.805 39.4439 105.805ZM109.086 105.805C107.759 106.04 106.695 107.007 106.322 108.292C105.949 109.591 106.336 110.973 107.317 111.885L122.351 126.919C123.208 127.969 124.576 128.453 125.902 128.149C127.215 127.845 128.251 126.808 128.555 125.496C128.859 124.169 128.375 122.801 127.325 121.945L112.292 106.911C111.628 106.206 110.716 105.819 109.749 105.805C109.638 105.805 109.528 105.805 109.417 105.805C109.307 105.805 109.196 105.805 109.086 105.805ZM74.4859 120.286C74.3339 120.314 74.1819 120.355 74.0438 120.397C72.3995 120.77 71.2387 122.248 71.2802 123.934V145.158C71.2664 146.43 71.9296 147.618 73.0351 148.267C74.1405 148.903 75.4946 148.903 76.6 148.267C77.7055 147.618 78.3687 146.43 78.3549 145.158V123.934C78.3964 122.912 77.9818 121.931 77.2495 121.24C76.5033 120.535 75.4947 120.19 74.4859 120.286Z" fill="#FAFF00"/>
</svg>
