<svg width="150" height="150" viewBox="0 0 150 150" fill="none" xmlns="http://www.w3.org/2000/svg">
<path d="M73.1275 125.973H86.5317L53.8205 149.741L61.0413 131.699H44.657L56.1185 108.794H90.3198L73.1275 125.973ZM121.346 103.068H35.3846C16.4272 103.068 1 87.654 1 68.7123C1 51.0991 14.198 36.4175 31.6997 34.5623L35.6712 34.1386L36.6511 30.2678C41.1498 12.4484 57.1272 0 75.5 0C97.6208 0 115.615 17.9797 115.615 40.0822V45.8082H121.346C137.146 45.8082 150 58.6517 150 74.4383C150 90.225 137.146 103.068 121.346 103.068Z" fill="#DED60E"/>
<path d="M36.1111 105.556C16.2 105.556 0 89.3556 0 69.4444C0 50.9333 13.8611 35.5056 32.2444 33.5444L34.1722 33.3389L34.6444 31.4611C39.3167 12.9389 55.9111 0 75 0C97.9778 0 116.667 18.6889 116.667 41.6667V44.4444H119.444C136.294 44.4444 150 58.1556 150 75C150 91.8444 136.294 105.556 119.444 105.556H36.1111Z" fill="#788287"/>
</svg>
