<svg width="21" height="20" viewBox="0 0 21 20" fill="none" xmlns="http://www.w3.org/2000/svg">
<path d="M9.35812 0L6.93126 2.42497L7.5013 5.27167H13.5873L14.1574 2.42497L12.7826 1.05099L11.6551 1.63171L12.3383 0.605405L11.7305 0H9.35812ZM7.98751 2.65424L9.87368 3.59812L9.70602 4.30938H7.98751V2.65424ZM13.1011 2.65424V4.30938H11.3826L11.215 3.59812L12.5562 2.92661L13.1011 2.65424ZM6.269 3.51863L5.34688 3.97885L5.79117 4.69429L4.78103 4.25917L2.8739 5.21309V5.88251L6.72168 5.33442L6.269 3.51863ZM14.8196 3.51863L14.3669 5.33442L18.2147 5.88251V5.21309L14.8196 3.51863ZM8.43181 6.03313L5.7786 6.22977L5.50196 6.27161L5.11634 8.87815L7.22047 9.9283L9.08568 9.30909L9.3204 10.0203L7.16179 10.74L5.30077 9.81116L6.15583 13.3465L10.1671 13.9155V7.18787L8.43181 6.03313ZM12.6568 6.03313L10.9215 7.18787V13.9155L14.9328 13.3465L15.7879 9.81116L14.7903 10.309L13.9688 11.924L13.1808 10.4931L11.7682 10.0203L12.003 9.30909L13.8682 9.9283L15.9723 8.87815L15.5867 6.27161L15.31 6.22977L12.6568 6.03313ZM4.70977 6.38457L2.13955 6.74857L0.880432 8.4263L1.033 9.49318L2.0968 9.9283L1.20108 10.6688L1.47227 12.5641L4.13135 12.037V9.63543L4.70977 6.38457ZM16.3789 6.38457L16.9573 9.63125V12.0328L19.1369 12.4679L19.7111 11.8947L20.2099 8.4263L18.9482 6.74857L17.7746 6.58121L17.5986 7.33013L17.1836 6.49754L16.3789 6.38457ZM4.17745 12.7942L1.60724 13.3047L2.78085 18.5763L4.76845 18.0827L4.17745 12.7942ZM16.9112 12.7942L16.3202 18.0827L17.2675 18.3169L17.5986 17.2375L18.3447 18.4132L19.4806 13.3047L16.9112 12.7942ZM6.18098 14.108L5.60256 19.3294H8.96832L10.5443 16.1874L12.1203 19.3294H13.4113L13.8975 18.3672L14.3795 19.3294H15.4861L14.9076 14.108L10.5443 14.7314L8.78808 14.4803L8.5324 15.9196L7.89111 14.3506L6.18098 14.108Z" fill="white"/>
</svg>
